# xmcd CD database file
#
# Track frame offsets:
#	183
#	14668
#	26773
#	41448
#	52843
#	65528
#	91120
#	100165
#	122305
#	136323
#	145180
#	156928
#	177088
#	193008
#
# Disc length: 3106 seconds
#
# Revision: 0
# Processed by: cddbd v1.4PL0 Copyright (c) Steve Scherf et al.
# Submitted via: Feurio! 1.66 - http://www.feurio.com
#
DISCID=b30c200e
DTITLE=Various Artist - Soul Classics, CD 2 of 2
DYEAR=1900
DGENRE=
TTITLE0=Otis Redding - I've been loving you too long
TTITLE1=Aretha Franklion - You make me feel
TTITLE2=Sam and Dave - When something is wrong with my Baby
TTITLE3=Wilson Picket - If You Need Me
TTITLE4=Percy Sledge - When a Man loves a Woman
TTITLE5=James Brown - For Your Precious Love
TTITLE6=Al Jarreau - Ain't no Sunshine
TTITLE7=Solomon Burke - Sidewalks Fences and Walls
TTITLE8=Ike and Tina Turner - It Sho' Ain't Me
TTITLE9=Jackie Wilson - Please tell me why
TTITLE10=The Drifters - Bring it on home to me
TTITLE11=Edda James - Drown in My Own Tears
TTITLE12=Fontella Bass - The Soul of a Man
TTITLE13=James Brown - It's a Man's Man's World
EXTD=
EXTT0=
EXTT1=
EXTT2=
EXTT3=
EXTT4=
EXTT5=
EXTT6=
EXTT7=
EXTT8=
EXTT9=
EXTT10=
EXTT11=
EXTT12=
EXTT13=
PLAYORDER=
